<?xml version="1.0" encoding="utf-8"?>
<!-- Copyright Matthew Crumley  -->
<!DOCTYPE svg PUBLIC "-//W3C//DTD SVG 1.1//EN" "http://www.w3.org/Graphics/SVG/1.1/DTD/svg11.dtd">
<svg version="1.1"
	 id="svg2" xmlns:dc="http://purl.org/dc/elements/1.1/" xmlns:cc="http://creativecommons.org/ns#" xmlns:rdf="http://www.w3.org/1999/02/22-rdf-syntax-ns#" xmlns:svg="http://www.w3.org/2000/svg"
	 xmlns="http://www.w3.org/2000/svg" xmlns:xlink="http://www.w3.org/1999/xlink" x="0px" y="0px" width="256px" height="256px"
	 viewBox="0 0 256 256" enable-background="new 0 0 256 256" xml:space="preserve">
<g>
	<g id="g2488" transform="translate(0,0)">
		<path id="path2426" fill="#B1B266" d="M230.824,125.774c-23.018,10.207-45.182,16.456-76.789,20.044
			c-4.813,38.186-17.962,72.061-36.597,97.372c8.022,4.883,8.877,5.381,17.523,10.747c9.163-10.952,16.711-25.048,25.192-48.578
			c8.479-23.532,8.989-32.505,11.386-48.786c11.661-1.325,27.595-3.776,42.999-8.145c15.41-4.373,30.868-10.506,39.455-15.171
			C244.57,130.288,240.237,128.627,230.824,125.774z"/>
		<path id="path3291" fill="#317308" d="M253.994,133.255c-22.466,11.49-50.845,19.725-82.455,23.313
			c-2.406,19.095-6.891,37.105-13.107,53.512c-6.216,16.403-14.154,31.2-23.473,43.857c20.447,0.69,41.321-4.239,60.422-15.419
			C233.258,216.358,254.401,175.34,253.994,133.255z"/>
	</g>
	
		<linearGradient id="path2420_1_" gradientUnits="userSpaceOnUse" x1="-453.6406" y1="-673.8301" x2="-533.1744" y2="-954.2377" gradientTransform="matrix(1.1228 0 0 -1.1228 705.4365 -740.4204)">
		<stop  offset="0" style="stop-color:#1970A7"/>
		<stop  offset="1" style="stop-color:#1970A7;stop-opacity:0"/>
	</linearGradient>
	<path id="path2420" fill="url(#path2420_1_)" d="M130.461,2.095c15.935,29.967,25.434,67.675,25.434,108.641
		c0,11.049-0.68,21.886-2.004,32.374c31.585-3.59,59.96-11.834,82.421-23.324c-0.186-19.523-4.998-39.264-14.93-57.451
		C201.874,26.614,167.218,5.287,130.461,2.095z"/>
	
		<linearGradient id="path2422_1_" gradientUnits="userSpaceOnUse" x1="-598.4756" y1="-669.8057" x2="-506.8043" y2="-818.5365" gradientTransform="matrix(1.1228 0 0 -1.1228 705.4365 -740.4204)">
		<stop  offset="0" style="stop-color:#5D8FCB"/>
		<stop  offset="1" style="stop-color:#437CC3"/>
	</linearGradient>
	<path id="path2422" fill="url(#path2422_1_)" d="M115.762,2.018C97.162,2.339,78.38,7.335,61.057,17.471
		C23.148,39.654,2.033,80.766,2.481,122.891c30.001,14.016,69.303,22.502,112.313,22.537c12.336,0.012,24.375-0.688,35.973-2.002
		c1.321-10.488,2.005-21.293,2.005-32.34c0-40.968-9.501-78.709-25.434-108.677C123.499,2.079,119.634,1.95,115.762,2.018z"/>
	<path id="path2424" fill="#1970A7" d="M2,125.119c0.203,19.487,5.014,39.188,14.929,57.343
		c20.541,37.614,57.862,59.305,96.761,60.637c18.632-25.303,31.778-59.198,36.597-97.372c-11.594,1.316-23.607,2.016-35.939,2.004
		C71.317,147.69,32.005,139.142,2,125.119z"/>
</g>
</svg>
